<?xml version="1.0" encoding="UTF-8"?><svg id="Layer_8" xmlns="http://www.w3.org/2000/svg" viewBox="0 0 152 57"><defs><style>.cls-1{fill:#273398;}.cls-2{fill:#36ab4d;}</style></defs><g id="Cubes"><path class="cls-1" d="M85.4,38.22c-2.76,0-5.06-.93-6.92-2.78-1.84-1.85-2.76-4.17-2.76-6.94s.92-5.08,2.76-6.92c1.84-1.87,4.14-2.81,6.92-2.81s5.09,1.01,6.84,3.04l-1.72,1.66c-1.33-1.61-3.04-2.42-5.12-2.42s-3.79,.69-5.17,2.08c-1.37,1.37-2.05,3.15-2.05,5.36s.68,3.99,2.05,5.36c1.39,1.39,3.11,2.08,5.17,2.08,2.17,0,4.05-.91,5.64-2.73l1.74,1.69c-.88,1.06-1.97,1.88-3.25,2.46-1.28,.58-2.66,.87-4.13,.87Z"/><path class="cls-1" d="M105.96,37.81h-2.29v-1.77h-.1c-.36,.62-.92,1.14-1.68,1.56s-1.54,.62-2.35,.62c-1.56,0-2.76-.45-3.6-1.34-.84-.89-1.26-2.16-1.26-3.81v-8.01h2.39v7.85c.05,2.08,1.1,3.12,3.15,3.12,.95,0,1.75-.39,2.39-1.16,.64-.77,.96-1.69,.96-2.77v-7.05h2.39v12.74Z"/><path class="cls-1" d="M115.61,38.22c-.94,0-1.79-.2-2.56-.6s-1.37-.93-1.78-1.59h-.1v1.77h-2.29V19.19h2.39v5.88l-.1,1.77h.1c.42-.66,1.01-1.19,1.78-1.59,.77-.4,1.62-.6,2.56-.6,1.68,0,3.1,.66,4.26,1.98,1.2,1.33,1.79,2.94,1.79,4.81s-.6,3.49-1.79,4.81c-1.16,1.32-2.58,1.98-4.26,1.98Zm-.39-2.18c1.14,0,2.11-.43,2.89-1.3,.78-.85,1.17-1.95,1.17-3.3s-.39-2.44-1.17-3.3c-.78-.87-1.74-1.3-2.89-1.3s-2.13,.43-2.91,1.3c-.76,.87-1.14,1.97-1.14,3.3s.38,2.46,1.14,3.33c.78,.85,1.75,1.27,2.91,1.27Z"/><path class="cls-1" d="M129.57,38.22c-1.87,0-3.42-.64-4.63-1.92s-1.82-2.9-1.82-4.86,.59-3.56,1.77-4.85c1.18-1.29,2.69-1.94,4.52-1.94s3.39,.61,4.51,1.83c1.12,1.22,1.68,2.93,1.68,5.14l-.03,.26h-10.01c.03,1.25,.45,2.25,1.25,3.02,.8,.76,1.75,1.14,2.86,1.14,1.52,0,2.72-.76,3.59-2.29l2.13,1.04c-.57,1.08-1.37,1.92-2.38,2.52s-2.16,.91-3.45,.91Zm-3.82-8.32h7.31c-.07-.88-.43-1.62-1.08-2.2-.65-.58-1.52-.87-2.61-.87-.9,0-1.68,.28-2.33,.83-.65,.56-1.08,1.3-1.29,2.24Z"/><path class="cls-1" d="M147.67,34.27c0,1.11-.49,2.05-1.46,2.81s-2.19,1.14-3.67,1.14c-1.28,0-2.41-.33-3.38-1s-1.66-1.55-2.08-2.64l2.13-.91c.31,.76,.77,1.36,1.37,1.78,.6,.42,1.25,.64,1.96,.64,.76,0,1.4-.16,1.91-.49,.51-.33,.77-.72,.77-1.17,0-.81-.62-1.41-1.87-1.79l-2.18-.55c-2.48-.62-3.72-1.82-3.72-3.59,0-1.16,.47-2.09,1.42-2.79,.94-.7,2.15-1.05,3.63-1.05,1.13,0,2.14,.27,3.05,.81,.91,.54,1.55,1.26,1.91,2.16l-2.13,.88c-.24-.54-.64-.96-1.18-1.26s-1.16-.46-1.83-.46c-.62,0-1.18,.16-1.68,.47s-.74,.69-.74,1.14c0,.73,.68,1.25,2.05,1.56l1.92,.49c2.53,.62,3.8,1.9,3.8,3.82Z"/></g><rect class="cls-2" x="4.32" y="21.77" width="30.72" height="30.72"/><rect class="cls-2" x="36.65" y="8.17" width="30.72" height="30.72"/><rect class="cls-2" x="19.39" y="4.51" width="15.65" height="15.65"/><rect class="cls-2" x="36.65" y="40.66" width="8.62" height="8.62"/></svg>