<?xml version="1.0" encoding="UTF-8"?><svg id="Layer_2" xmlns="http://www.w3.org/2000/svg" viewBox="0 0 1903.02 1035.39"><defs><style>.cls-1{fill:#fff;}.cls-2{opacity:.5;}</style></defs><g id="Layer_1-2" class="cls-2"><circle class="cls-1" cx="877" cy="833.42" r="3.96"/><circle class="cls-1" cx="762.66" cy="912.84" r="3.96"/><circle class="cls-1" cx="80.13" cy="303.7" r="3.96"/><circle class="cls-1" cx="382.16" cy="713.48" r="3.96"/><circle class="cls-1" cx="553.47" cy="659.67" r="3.96"/><circle class="cls-1" cx="888.88" cy="995.16" r="3.96"/><circle class="cls-1" cx="307.33" cy="663.62" r="3.96"/><circle class="cls-1" cx="732.14" cy="999.96" r="3.96"/><circle class="cls-1" cx="420.25" cy="510.81" r="3.96"/><circle class="cls-1" cx="484.99" cy="261.66" r="3.96"/><circle class="cls-1" cx="632.26" cy="190.38" r="3.96"/><circle class="cls-1" cx="575.39" cy="34.57" r="3.96"/><circle class="cls-1" cx="508.66" cy="410.53" r="3.96"/><circle class="cls-1" cx="229.28" cy="268.65" r="3.96"/><circle class="cls-1" cx="226.96" cy="143.85" r="3.96"/><circle class="cls-1" cx="331.83" cy="202.11" r="3.96"/><circle class="cls-1" cx="442.44" cy="110.7" r="3.96"/><circle class="cls-1" cx="336.09" cy="17.95" r="3.96"/><circle class="cls-1" cx="355.49" cy="350.97" r="3.96"/><circle class="cls-1" cx="332.13" cy="401.64" r="3.96"/><circle class="cls-1" cx="278.58" cy="930.76" r="3.96"/><circle class="cls-1" cx="331" cy="1031.43" r="3.96"/><circle class="cls-1" cx="226.96" cy="808.53" r="3.96"/><circle class="cls-1" cx="166.83" cy="995.78" r="3.96"/><circle class="cls-1" cx="191.29" cy="420.74" r="3.96"/><circle class="cls-1" cx="313.29" cy="509.26" r="3.96"/><circle class="cls-1" cx="665.31" cy="335.85" r="3.96"/><circle class="cls-1" cx="588.58" cy="410.39" r="3.96"/><circle class="cls-1" cx="15.42" cy="606.49" r="3.96"/><circle class="cls-1" cx="170.79" cy="663.62" r="3.96"/><circle class="cls-1" cx="53.46" cy="827.91" r="3.96"/><circle class="cls-1" cx="122.32" cy="52.41" r="3.96"/><circle class="cls-1" cx="3.96" cy="734.13" r="3.96"/><circle class="cls-1" cx="40.87" cy="486.93" r="3.96"/><circle class="cls-1" cx="142.42" cy="542.77" r="3.96"/><circle class="cls-1" cx="936.93" cy="479.81" r="3.96"/><circle class="cls-1" cx="861.52" cy="538.81" r="3.96"/><circle class="cls-1" cx="113.9" cy="202.83" r="3.96"/><circle class="cls-1" cx="892.84" cy="190.38" r="3.96"/><circle class="cls-1" cx="591.23" cy="995.78" r="3.96"/><circle class="cls-1" cx="816.74" cy="769.31" r="3.96"/><circle class="cls-1" cx="711.24" cy="718.68" r="3.96"/><circle class="cls-1" cx="587.27" cy="874.36" r="3.96"/><circle class="cls-1" cx="459.31" cy="831.87" r="3.96"/><circle class="cls-1" cx="12.41" cy="92.59" r="3.96"/><circle class="cls-1" cx="29.39" cy="219.46" r="3.96"/><circle class="cls-1" cx="736.1" cy="483.77" r="3.96"/><circle class="cls-1" cx="773.02" cy="236.57" r="3.96"/><circle class="cls-1" cx="1710.54" cy="1003.08" r="3.96"/><circle class="cls-1" cx="1698.66" cy="912.84" r="3.96"/><circle class="cls-1" cx="1016.13" cy="303.7" r="3.96"/><circle class="cls-1" cx="1318.16" cy="713.48" r="3.96"/><circle class="cls-1" cx="1824.88" cy="995.16" r="3.96"/><circle class="cls-1" cx="1243.33" cy="663.62" r="3.96"/><circle class="cls-1" cx="1605.86" cy="1003.08" r="3.96"/><circle class="cls-1" cx="1651.2" cy="18.29" r="3.96"/><circle class="cls-1" cx="1529.35" cy="513.22" r="3.96"/><circle class="cls-1" cx="1613.78" cy="299.74" r="3.96"/><circle class="cls-1" cx="1444.66" cy="410.53" r="3.96"/><circle class="cls-1" cx="1165.28" cy="268.65" r="3.96"/><circle class="cls-1" cx="1267.83" cy="202.11" r="3.96"/><circle class="cls-1" cx="1452.58" cy="198.87" r="3.96"/><circle class="cls-1" cx="1178.47" cy="112.28" r="3.96"/><circle class="cls-1" cx="1281.02" cy="45.73" r="3.96"/><circle class="cls-1" cx="1465.77" cy="42.49" r="3.96"/><circle class="cls-1" cx="1291.49" cy="350.97" r="3.96"/><circle class="cls-1" cx="1738.37" cy="330.5" r="3.96"/><circle class="cls-1" cx="1864.58" cy="412.82" r="3.96"/><circle class="cls-1" cx="1214.58" cy="930.76" r="3.96"/><circle class="cls-1" cx="1322.12" cy="948.05" r="3.96"/><circle class="cls-1" cx="1267" cy="1031.43" r="3.96"/><circle class="cls-1" cx="1162.96" cy="808.53" r="3.96"/><circle class="cls-1" cx="1102.83" cy="995.78" r="3.96"/><circle class="cls-1" cx="1127.29" cy="420.74" r="3.96"/><circle class="cls-1" cx="1249.29" cy="509.26" r="3.96"/><circle class="cls-1" cx="951.42" cy="606.49" r="3.96"/><circle class="cls-1" cx="989.46" cy="827.91" r="3.96"/><circle class="cls-1" cx="1058.32" cy="52.41" r="3.96"/><circle class="cls-1" cx="939.96" cy="734.13" r="3.96"/><circle class="cls-1" cx="976.87" cy="486.93" r="3.96"/><circle class="cls-1" cx="1425.32" cy="659.3" r="3.96"/><circle class="cls-1" cx="1439.8" cy="785.98" r="3.96"/><circle class="cls-1" cx="1465.26" cy="666.42" r="3.96"/><circle class="cls-1" cx="1872.93" cy="479.81" r="3.96"/><circle class="cls-1" cx="1797.52" cy="607.89" r="3.96"/><circle class="cls-1" cx="1049.9" cy="202.83" r="3.96"/><circle class="cls-1" cx="1899.06" cy="191.97" r="3.96"/><circle class="cls-1" cx="1876.89" cy="3.96" r="3.96"/><circle class="cls-1" cx="1609.82" cy="878.32" r="3.96"/><circle class="cls-1" cx="1752.74" cy="769.31" r="3.96"/><circle class="cls-1" cx="1647.24" cy="718.68" r="3.96"/><circle class="cls-1" cx="1523.27" cy="874.36" r="3.96"/><circle class="cls-1" cx="948.41" cy="92.59" r="3.96"/><circle class="cls-1" cx="965.39" cy="219.46" r="3.96"/><circle class="cls-1" cx="708.89" cy="9.46" r="3.96"/><circle class="cls-1" cx="865.96" cy="21.91" r="3.96"/><circle class="cls-1" cx="781.44" cy="38.53" r="3.96"/><circle class="cls-1" cx="1672.1" cy="483.77" r="3.96"/><circle class="cls-1" cx="1709.02" cy="236.57" r="3.96"/></g></svg>