<?xml version="1.0" encoding="UTF-8"?><svg id="Layer_2" xmlns="http://www.w3.org/2000/svg" viewBox="0 0 300 174.07"><defs><style>.cls-1{fill:white;}</style></defs><g id="Layer_4"><path class="cls-1" d="M300,142.5h0c0,17.37-14.21,31.57-31.57,31.57H31.57c-17.36,0-31.57-14.2-31.57-31.56H0c0-17.37,14.21-31.57,31.57-31.57h9c-5.39-10.44-8.44-22.29-8.44-34.85C32.14,34.07,66.2,0,108.23,0c33.42,0,61.81,21.54,72.03,51.5,9.07-6.46,20.16-10.25,32.14-10.25,30.64,0,55.47,24.83,55.47,55.47,0,4.92-.64,9.68-1.84,14.22h2.41c17.36,0,31.57,14.2,31.57,31.56Z"/></g></svg>