<?xml version="1.0" encoding="UTF-8"?><svg id="Layer_16" xmlns="http://www.w3.org/2000/svg" viewBox="0 0 393.81 378.76"><defs><style>.cls-1{fill:#e1e3f7;}</style></defs><path class="cls-1" d="M235.07,24.22l27.72,56.17c6.2,12.56,18.18,21.27,32.05,23.28l61.99,9.01c34.91,5.07,48.85,47.97,23.59,72.59l-44.85,43.72c-10.03,9.78-14.61,23.87-12.24,37.67l10.59,61.74c5.96,34.77-30.53,61.28-61.75,44.87l-55.44-29.15c-12.4-6.52-27.21-6.52-39.61,0l-55.44,29.15c-31.22,16.42-67.72-10.1-61.75-44.87l10.59-61.74c2.37-13.81-2.21-27.89-12.24-37.67L13.4,185.28c-25.26-24.62-11.32-67.52,23.59-72.59l61.99-9.01c13.86-2.01,25.85-10.72,32.05-23.28l27.72-56.17c15.61-31.63,60.72-31.63,76.33,0Z"/></svg>