<?xml version="1.0" encoding="UTF-8"?><svg id="Layer_2" xmlns="http://www.w3.org/2000/svg" viewBox="0 0 258.06 434.85"><defs><style>.cls-1{fill:#e1e3f7;}.cls-2{fill:#3f3f3f;}.cls-3{stroke:#b8bded;}.cls-3,.cls-4,.cls-5,.cls-6,.cls-7,.cls-8,.cls-9,.cls-10,.cls-11,.cls-12,.cls-13{fill:none;stroke-linejoin:round;}.cls-3,.cls-4,.cls-5,.cls-6,.cls-8,.cls-9,.cls-10,.cls-11,.cls-12,.cls-13{stroke-linecap:round;}.cls-3,.cls-11{stroke-width:4px;}.cls-14{fill:#2c3aad;}.cls-15{fill:#fff;stroke-width:6px;}.cls-15,.cls-4,.cls-5{stroke:#797a85;}.cls-15,.cls-16{stroke-miterlimit:10;}.cls-17{fill:#121847;}.cls-4{stroke-width:8.44px;}.cls-18{fill:#9da5bf;}.cls-5{stroke-width:10px;}.cls-6{stroke:#5d5d5d;}.cls-6,.cls-7,.cls-8,.cls-12,.cls-13{stroke-width:8px;}.cls-7{stroke:#2c3aad;}.cls-8,.cls-11{stroke:#3f3f3f;}.cls-19{fill:#797a85;}.cls-20{fill:#b8bded;}.cls-16{fill:#fcdc92;stroke:#fdcb4c;stroke-width:5px;}.cls-9,.cls-10{stroke:#fff;stroke-width:4.6px;}.cls-10{stroke-dasharray:0 0 0 0 .53 10.57 10.57 .53;}.cls-12{stroke:#494949;}.cls-21{fill:#9e9fad;}.cls-13{stroke:#535353;}</style></defs><g id="Layer_14"><rect id="o2Tank" class="cls-18" x="45.39" y="59.42" width="167.15" height="216" rx="26.7" ry="26.7"/><g id="armR"><line class="cls-8" x1="248.91" y1="221.18" x2="240.13" y2="254.17"/><line class="cls-12" x1="242.1" y1="224.18" x2="233.32" y2="257.17"/><line class="cls-13" x1="234.87" y1="225.43" x2="226.09" y2="258.42"/><line class="cls-6" x1="227.94" y1="225.54" x2="219.16" y2="258.54"/><line class="cls-6" x1="227.94" y1="225.54" x2="212.53" y2="246"/><path class="cls-20" d="M230.12,252.42c1.11,.21,2.21,.31,3.3,.31,8.23,0,15.57-5.84,17.17-14.22,.68-3.58,1.2-7.08,1.58-10.5l-34.83-3.57c-.27,2.45-.64,4.95-1.13,7.51-1.81,9.49,4.42,18.66,13.91,20.47Z"/><path class="cls-1" d="M145.06,122.15c1.86,8.86,10.1,14.73,18.91,13.83,3.17,.85,10.2,4.91,14.41,8.03,.53,.39,.91,.66,1.49,.99,1.68,1.02,39.09,24.44,38.01,71.45-.05,2.59-.23,5.26-.54,7.99l34.83,3.57c.3-2.71,.51-5.37,.62-7.98,.61-12.98-.89-24.69-3.65-35.1-.52-1.98-1.08-3.91-1.69-5.79-3.15-9.78-7.36-18.28-11.8-25.46-1.08-1.76-2.18-3.44-3.28-5.04-.7-1.02-1.4-2-2.1-2.95-13.17-17.93-27.72-27.77-31.66-30.25-9.17-6.71-25.97-16.93-40-14-9.46,1.98-15.53,11.25-13.55,20.71Z"/><path class="cls-19" d="M222.05,166.16c0,11.05,8.99,20.05,20.05,20.05,2.48,0,4.85-.45,7.04-1.28-.52-1.98-1.08-3.91-1.69-5.79-1.65,.69-3.46,1.07-5.35,1.07-7.75,0-14.05-6.3-14.05-14.05,0-5.43,3.09-10.14,7.6-12.48-1.08-1.76-2.18-3.44-3.28-5.04-6.15,3.42-10.32,10-10.32,17.52Z"/><path class="cls-14" d="M215.81,224.28l1.53,.16,34.83,3.57,1.48,.15c.14,.02,.28,.02,.41,.02,2.03,0,3.77-1.53,3.98-3.59,.22-2.2-1.38-4.16-3.57-4.39l-1.68-.17-34.91-3.58-1.26-.13c-2.19-.22-4.16,1.37-4.38,3.57-.23,2.2,1.37,4.16,3.57,4.39Z"/><ellipse class="cls-1" cx="207.34" cy="128.76" rx="15.83" ry="19.12" transform="translate(-30.32 184.33) rotate(-45)"/><polyline class="cls-3" points="224.06 137.13 188.59 149.11 197.76 113.2"/></g><g id="armL"><line class="cls-8" x1="9.14" y1="221.18" x2="17.92" y2="254.17"/><line class="cls-12" x1="15.96" y1="224.18" x2="24.74" y2="257.17"/><line class="cls-13" x1="23.19" y1="225.43" x2="31.97" y2="258.42"/><line class="cls-6" x1="30.12" y1="225.54" x2="38.9" y2="258.54"/><line class="cls-6" x1="30.12" y1="225.54" x2="45.53" y2="246"/><path class="cls-20" d="M27.94,252.42c-1.11,.21-2.21,.31-3.3,.31-8.23,0-15.57-5.84-17.17-14.22-.68-3.58-1.2-7.08-1.58-10.5l34.83-3.57c.27,2.45,.64,4.95,1.13,7.51,1.81,9.49-4.42,18.66-13.91,20.47Z"/><path class="cls-1" d="M99.45,101.44c-14.03-2.93-30.83,7.29-40,14-3.94,2.48-18.49,12.32-31.66,30.25-.7,.95-1.4,1.93-2.1,2.95-1.1,1.6-2.2,3.28-3.28,5.04-4.44,7.18-8.65,15.68-11.8,25.46-.61,1.88-1.17,3.81-1.69,5.79-2.76,10.41-4.26,22.12-3.65,35.1,.11,2.61,.32,5.27,.62,7.98l34.83-3.57c-.31-2.73-.49-5.4-.54-7.99-1.08-47.01,36.33-70.43,38.01-71.45,.58-.33,.96-.6,1.49-.99,4.21-3.12,11.24-7.18,14.41-8.03,8.81,.9,17.05-4.97,18.91-13.83,1.98-9.46-4.09-18.73-13.55-20.71Z"/><path class="cls-19" d="M25.69,148.64c-1.1,1.6-2.2,3.28-3.28,5.04,4.51,2.34,7.6,7.05,7.6,12.48,0,7.75-6.3,14.05-14.05,14.05-1.89,0-3.7-.38-5.35-1.07-.61,1.88-1.17,3.81-1.69,5.79,2.19,.83,4.56,1.28,7.04,1.28,11.06,0,20.05-9,20.05-20.05,0-7.52-4.17-14.1-10.32-17.52Z"/><path class="cls-14" d="M42.25,224.28l-1.53,.16-34.83,3.57-1.48,.15c-.14,.02-.28,.02-.41,.02-2.03,0-3.77-1.53-3.98-3.59-.22-2.2,1.38-4.16,3.57-4.39l1.68-.17,34.91-3.58,1.26-.13c2.19-.22,4.16,1.37,4.38,3.57,.23,2.2-1.37,4.16-3.57,4.39Z"/><ellipse class="cls-1" cx="50.72" cy="128.76" rx="19.12" ry="15.83" transform="translate(-76.19 73.57) rotate(-45)"/><polyline class="cls-3" points="33.99 137.13 69.47 149.11 60.3 113.2"/></g><g id="legs"><g id="lL"><path class="cls-1" d="M147.24,413.24c-3.55,0-7.14-1.08-10.24-3.32-7.83-5.67-9.59-16.61-3.92-24.44,17.75-24.54,24.75-46.64,20.8-65.71-4.65-22.45-23.28-34.06-23.47-34.17-8.31-4.94-11.04-15.67-6.11-23.98,4.94-8.31,15.67-11.05,23.98-6.11,1.3,.78,32.04,19.42,39.86,57.16,6.03,29.09-2.96,60.49-26.71,93.32-3.42,4.73-8.77,7.24-14.19,7.24Z"/><g><path class="cls-1" d="M123.2,396.58l43.83,35.15c8.54-10.65,6.81-26.35-3.83-34.89l-24.46-19.62-15.53,19.36Z"/><line class="cls-7" x1="123.2" y1="396.58" x2="167.02" y2="431.73"/><path class="cls-1" d="M167.43,397.25l-2.09,2.25,1.85,1.49c-.63-1.11-.37-2.53,.24-3.74Z"/><path class="cls-21" d="M174.57,385.25c-.79,1.48-1.62,2.96-2.5,4.44-.14-.09-.28-.2-.41-.32-2.53-2.44-5.38-3.54-8.72-3.34-6,.36-12.29,4.74-16.91,8.82-4.15,3.66-6.96,7.09-7.03,7.17-.12,.15-.26,.28-.41,.4-.04,.03-.06,.05-.08,.06-.11,.08-.22,.15-.34,.2-.1,.05-.2,.09-.3,.13-.14,.04-.29,.08-.43,.1-.13,.02-.25,.03-.38,.03-.1,0-.2-.01-.3-.02-.07-.01-.15-.02-.22-.04-.1-.02-.2-.04-.3-.08-.1-.03-.21-.08-.31-.13-.18-.09-.36-.21-.52-.36-.07-.05-.13-.11-.19-.18-.05-.05-.09-.1-.13-.16-.06-.06-.1-.13-.15-.21-.19-.29-.3-.61-.35-.94-.02-.13-.03-.25-.03-.38,0-.1,0-.2,.02-.3,.01-.07,.02-.15,.04-.22,.02-.1,.04-.2,.08-.3,.03-.1,.08-.21,.13-.31,.01-.01,.01-.02,.02-.03,.02-.05,.05-.09,.08-.13,.07-.14,.17-.27,.28-.39,.12-.13,.25-.25,.4-.36,.07-.04,4-2.89,6.7-6.94,1.38-2.08,2.44-4.47,2.48-6.96,.05-3.16-1.65-6.17-5.05-8.95,.91-1.46,1.77-2.91,2.59-4.34,5.03,3.91,7.54,8.42,7.46,13.39,0,.4-.03,.8-.08,1.2,3.99-2.53,8.45-4.49,12.93-4.76,4.49-.27,8.51,1.15,11.93,4.21Z"/><path class="cls-14" d="M141.19,411.01c3.79-2.38,5.82-7,4.71-11.58-1.39-5.74-7.18-9.26-12.91-7.87-3.59,.87-6.31,3.46-7.5,6.67l15.71,12.78Z"/></g><polyline class="cls-3" points="189 316.04 155.89 331.95 186.82 352.88"/></g><g id="lR"><path class="cls-1" d="M92.37,382.96c-3.92,0-7.86-1.31-11.12-4-23.81-19.64-27.4-39.84-26.21-53.32,3.39-38.48,47.9-64.68,52.97-67.54,8.42-4.75,19.09-1.79,23.84,6.63,4.75,8.41,1.79,19.07-6.61,23.83-8.71,4.98-33.87,23.02-35.34,40.19-.24,2.77-.96,11.19,13.62,23.21,7.46,6.15,8.52,17.18,2.37,24.63-3.46,4.2-8.47,6.37-13.51,6.37Z"/><g><path class="cls-1" d="M119.69,364.29l-34.29,44.5c-10.81-8.33-12.84-24-4.51-34.81l19.14-24.84,19.66,15.15Z"/><line class="cls-7" x1="119.69" y1="364.29" x2="85.4" y2="408.79"/><path class="cls-1" d="M77.16,375.33l2.27,1.75-1.45,1.88c.35-1.22,.05-2.6-.82-3.63Z"/><path class="cls-21" d="M110.58,372.16c0,.11,0,.21-.02,.32-.01,.04-.01,.09-.03,.14,0,0,0,0,0,.01-.02,.1-.04,.21-.08,.31-.04,.12-.09,.24-.15,.35,0,.02-.01,.03-.02,.04-.06,.12-.13,.23-.22,.34-.03,.05-.07,.09-.11,.13-.04,.06-.1,.12-.16,.17-.19,.18-.41,.33-.65,.44-.11,.05-.22,.1-.34,.13-.1,.03-.21,.06-.32,.07-.13,.03-.27,.04-.4,.04-.12,0-.25-.01-.37-.03h-.04c-.11-.02-.22-.05-.33-.09-.02,0-.03,0-.05-.01-.26-.09-.5-.21-.73-.39-.08-.06-3.62-2.75-8.52-5.36-5.44-2.9-12.56-5.69-18.47-4.65-3.3,.58-5.82,2.31-7.71,5.27-.09,.15-.2,.28-.32,.4-1.2-1.31-2.31-2.62-3.34-3.92,2.61-3.67,6.14-5.91,10.51-6.67,4.42-.78,9.22,.1,13.68,1.64-.14-.37-.26-.76-.36-1.15-1.23-4.83,.17-9.8,4.18-14.79,1,1.17,2.15,2.4,3.48,3.67-2.65,3.49-3.6,6.8-2.82,9.86,.62,2.41,2.2,4.49,4.02,6.19,3.57,3.32,8.06,5.18,8.13,5.21,.09,.04,.18,.08,.27,.13,.11,.06,.22,.14,.32,.21,.03,.03,.06,.05,.08,.07,.09,.08,.17,.16,.25,.24,.16,.18,.29,.37,.39,.58,0,.01,.01,.02,.01,.03,.05,.11,.1,.23,.13,.34,.04,.11,.06,.23,.08,.34,.02,.13,.03,.26,.03,.39Z"/><path class="cls-14" d="M105.61,382.56c-4.25-1.42-7.31-5.42-7.31-10.15,0-5.91,4.79-10.69,10.69-10.69,3.69,0,6.95,1.87,8.87,4.71l-12.25,16.12Z"/></g><polyline class="cls-3" points="56.02 342.39 89.13 326.48 59.11 308.19"/></g></g><g id="body"><polygon id="body-2" class="cls-1" points="176.45 286.77 81.47 286.77 69.75 117 188.16 117 176.45 286.77"/><path class="cls-1" d="M80.67,275.25l.74,3.16-1.85,1.49c.63-1.11,1.21-3.31,1.12-4.65Z"/><path class="cls-1" d="M176.78,281.92l-.8,2.42,1.59,1.57c-.63-1.11-.92-2.62-.79-3.99Z"/><line class="cls-4" x1="75.07" y1="174.54" x2="182.85" y2="174.54"/><line class="cls-5" x1="128.96" y1="135.41" x2="128.96" y2="286.77"/><g><rect class="cls-15" x="83.35" y="149.11" width="91.23" height="50.87" rx="10.22" ry="10.22"/><circle class="cls-16" cx="105.3" cy="174.54" r="10.87"/><g><line class="cls-11" x1="135.26" y1="164" x2="163.49" y2="164"/><line class="cls-11" x1="135.26" y1="171.12" x2="163.49" y2="171.12"/><line class="cls-11" x1="135.26" y1="178.24" x2="163.49" y2="178.24"/><line class="cls-11" x1="135.26" y1="185.36" x2="163.49" y2="185.36"/></g></g></g><g id="head"><ellipse class="cls-14" cx="128.96" cy="104.18" rx="70.07" ry="33.95"/><rect class="cls-1" x="191.46" y="57" width="15.14" height="40.09" rx="7.57" ry="7.57"/><rect class="cls-1" x="51.32" y="57" width="15.14" height="40.09" rx="7.57" ry="7.57"/><path class="cls-1" d="M203.03,74.07c0,40.91-33.16,55.88-74.07,55.88s-74.07-14.98-74.07-55.88S88.05,0,128.96,0s74.07,33.16,74.07,74.07Z"/><g><path class="cls-17" d="M165.93,37.31c15.74,2.5,30.71,17.14,31.16,33.61,.13,3.41,.13,5.11,0,8.52-.45,16.58-15.57,31.01-31.18,34.03-25.8,4.38-48.12,4.64-73.91-.04-16.11-2.74-30.13-17.67-31.18-34-.13-3.41-.13-5.11,0-8.52,1.03-16.04,14.91-31.63,31.16-33.6,23.78-1.97,50.15-1.93,73.94,0Z"/><path class="cls-19" d="M92,110.75c-14.21-3.24-28.52-15.69-28.85-31.3-.13-3.41-.13-5.11,0-8.52,.35-15.5,14.48-28.22,28.84-30.95,23.99-1.71,49.95-1.68,73.94,0,15.29,1.72,27.37,16.31,28.84,30.96,.13,3.41,.13,5.11,0,8.52-1.47,14.77-13.66,29.14-28.85,31.33-25.61,3.81-48.32,4.02-73.92-.03m.01,5.13c25.8,5.07,48.08,4.77,73.9,.04,16.87-3.32,32.93-18.53,33.49-36.47,.13-3.41,.13-5.11,0-8.52-.56-17.79-16.47-33.3-33.48-36.03-23.57-2.14-50.37-2.18-73.93,0-17.54,2.18-32.3,18.68-33.48,36.03-.13,3.41-.13,5.11,0,8.52,1.2,17.7,16.1,33.36,33.5,36.43h0Z"/></g><g><path class="cls-9" d="M67.64,77.04c0-2.24,.31-4.39,.26-6.55-.02-1.15,.06-2.3,.25-3.43"/><path class="cls-10" d="M72.31,57.44c4.12-5.78,10.68-10.39,17.63-12.37"/><path class="cls-9" d="M90.2,44.99c3.29-.91,6.66-1.23,9.91-.81"/></g></g><g id="o2Pipes"><circle class="cls-19" cx="155.39" cy="238.58" r="10.78"/><path class="cls-2" d="M209.28,273.67c-.34,3.22-2.09,7.71-8.54,10.78-1.94,.93-3.97,1.39-6.07,1.39-5.75,0-12.08-3.48-18.91-10.42-2.76-2.8-5.6-6.17-8.52-10.1-8.76-11.78-15.16-24.4-15.42-24.94-1-1.97-.21-4.37,1.77-5.37,1.97-.99,4.37-.2,5.37,1.78,5.86,11.61,18.4,31.58,28.92,38.54,3.46,2.31,6.71,3.19,9.42,1.9,3.36-1.6,3.9-3.27,4.02-4.38,.07-.7,0-1.46-.2-2.28,2.37-1.66,4.47-3.71,6.19-6.05,1.47,3.05,2.28,6.16,1.97,9.15Z"/><circle class="cls-19" cx="102.53" cy="238.58" r="10.78"/><path class="cls-2" d="M106.1,240.38c-.27,.54-6.66,13.16-15.43,24.94-2.92,3.93-5.77,7.3-8.53,10.1-6.82,6.94-13.15,10.42-18.9,10.42-2.1,0-4.13-.46-6.07-1.39-6.45-3.07-8.2-7.56-8.53-10.78-.31-2.99,.5-6.11,1.96-9.16,1.71,2.34,3.81,4.39,6.19,6.05-.2,.82-.27,1.59-.2,2.29,.12,1.11,.66,2.78,4.02,4.38,2.71,1.29,5.96,.41,9.42-1.9h0c10.51-6.97,23.06-26.93,28.91-38.54,1-1.98,3.4-2.77,5.37-1.78,1.98,1,2.77,3.4,1.78,5.37Z"/></g></g></svg>