<?xml version="1.0" encoding="UTF-8"?><svg id="Layer_6" xmlns="http://www.w3.org/2000/svg" viewBox="0 0 152 57"><defs><style>.cls-1{fill:#273398;}.cls-2{fill:#b2c0cb;}.cls-3{fill:#f2d68f;}.cls-4{fill:#e1e8ed;}.cls-5{fill:#ffcc4d;}</style></defs><g id="Lunes_Hosting"><path class="cls-1" d="M28.63,31.84h5.96v2.25h-8.76v-13.62h2.81v11.37Z"/><path class="cls-1" d="M41.95,33.07c-.67,.81-1.59,1.22-2.77,1.22-1.08,0-1.91-.31-2.48-.94-.57-.62-.86-1.54-.88-2.74v-6.63h2.7v6.55c0,1.06,.48,1.58,1.44,1.58s1.55-.32,1.89-.96v-7.17h2.71v10.12h-2.54l-.08-1.03Z"/><path class="cls-1" d="M49.09,23.98l.08,1.17c.72-.9,1.69-1.36,2.91-1.36,1.07,0,1.87,.31,2.4,.94,.52,.63,.79,1.57,.8,2.83v6.54h-2.7v-6.47c0-.57-.12-.99-.37-1.25-.25-.26-.66-.39-1.24-.39-.76,0-1.33,.32-1.71,.97v7.14h-2.7v-10.12h2.54Z"/><path class="cls-1" d="M61.99,34.29c-1.48,0-2.69-.46-3.62-1.37-.93-.91-1.4-2.12-1.4-3.64v-.26c0-1.02,.2-1.93,.59-2.73s.95-1.42,1.67-1.85c.72-.43,1.54-.65,2.46-.65,1.38,0,2.47,.44,3.27,1.31,.79,.87,1.19,2.11,1.19,3.71v1.1h-6.45c.09,.66,.35,1.19,.79,1.59,.44,.4,1,.6,1.67,.6,1.04,0,1.86-.38,2.44-1.13l1.33,1.49c-.41,.57-.95,1.02-1.65,1.34-.69,.32-1.46,.48-2.3,.48Zm-.31-8.32c-.54,0-.97,.18-1.3,.54-.33,.36-.55,.88-.64,1.56h3.76v-.22c-.01-.6-.17-1.07-.49-1.4-.31-.33-.75-.49-1.33-.49Z"/><path class="cls-1" d="M73.17,31.3c0-.33-.16-.59-.49-.78-.33-.19-.85-.36-1.58-.51-2.41-.5-3.61-1.53-3.61-3.07,0-.9,.37-1.65,1.12-2.25,.75-.6,1.72-.9,2.92-.9,1.29,0,2.31,.3,3.08,.91,.77,.6,1.16,1.39,1.16,2.36h-2.7c0-.39-.12-.71-.37-.96-.25-.25-.64-.38-1.17-.38-.46,0-.81,.1-1.06,.31-.25,.21-.37,.47-.37,.79,0,.3,.14,.54,.43,.73,.28,.18,.76,.34,1.44,.48,.67,.13,1.24,.29,1.7,.45,1.43,.52,2.14,1.43,2.14,2.72,0,.92-.4,1.67-1.19,2.24-.79,.57-1.81,.86-3.07,.86-.85,0-1.6-.15-2.26-.45-.66-.3-1.17-.72-1.55-1.24s-.56-1.1-.56-1.71h2.56c.02,.48,.2,.85,.53,1.1,.33,.26,.77,.38,1.33,.38,.52,0,.91-.1,1.17-.29,.27-.2,.4-.45,.4-.77Z"/><path class="cls-1" d="M93.57,34.1h-2.81v-5.84h-5.47v5.84h-2.81v-13.62h2.81v5.52h5.47v-5.52h2.81v13.62Z"/><path class="cls-1" d="M95.42,28.94c0-1,.19-1.9,.58-2.68s.94-1.39,1.67-1.82c.73-.43,1.57-.65,2.53-.65,1.37,0,2.48,.42,3.34,1.25,.86,.84,1.35,1.97,1.45,3.4l.02,.69c0,1.55-.43,2.8-1.3,3.74-.87,.94-2.03,1.41-3.49,1.41s-2.62-.47-3.49-1.4c-.87-.94-1.3-2.21-1.3-3.82v-.12Zm2.7,.19c0,.96,.18,1.7,.54,2.21,.36,.51,.88,.76,1.55,.76s1.17-.25,1.53-.75,.55-1.31,.55-2.41c0-.94-.18-1.67-.55-2.19-.37-.52-.89-.78-1.55-.78s-1.17,.26-1.53,.77c-.36,.52-.54,1.31-.54,2.39Z"/><path class="cls-1" d="M112.16,31.3c0-.33-.16-.59-.49-.78-.33-.19-.85-.36-1.58-.51-2.41-.5-3.61-1.53-3.61-3.07,0-.9,.37-1.65,1.12-2.25,.75-.6,1.72-.9,2.92-.9,1.29,0,2.31,.3,3.08,.91,.77,.6,1.16,1.39,1.16,2.36h-2.7c0-.39-.12-.71-.37-.96-.25-.25-.64-.38-1.17-.38-.46,0-.81,.1-1.06,.31-.25,.21-.37,.47-.37,.79,0,.3,.14,.54,.43,.73,.28,.18,.76,.34,1.44,.48,.67,.13,1.24,.29,1.7,.45,1.43,.52,2.14,1.43,2.14,2.72,0,.92-.4,1.67-1.19,2.24-.79,.57-1.81,.86-3.07,.86-.85,0-1.6-.15-2.26-.45-.66-.3-1.17-.72-1.55-1.24s-.56-1.1-.56-1.71h2.56c.02,.48,.2,.85,.53,1.1,.33,.26,.77,.38,1.33,.38,.52,0,.91-.1,1.17-.29,.27-.2,.4-.45,.4-.77Z"/><path class="cls-1" d="M119.76,21.49v2.49h1.73v1.98h-1.73v5.05c0,.37,.07,.64,.22,.8s.42,.24,.82,.24c.3,0,.56-.02,.79-.07v2.05c-.53,.16-1.08,.24-1.64,.24-1.9,0-2.86-.96-2.9-2.87v-5.45h-1.48v-1.98h1.48v-2.49h2.7Z"/><path class="cls-1" d="M122.98,21.36c0-.41,.14-.74,.41-1,.27-.26,.64-.39,1.11-.39s.83,.13,1.1,.39c.27,.26,.41,.6,.41,1s-.14,.75-.42,1.01c-.28,.26-.64,.39-1.1,.39s-.82-.13-1.1-.39c-.28-.26-.42-.6-.42-1.01Zm2.87,12.74h-2.71v-10.12h2.71v10.12Z"/><path class="cls-1" d="M130.57,23.98l.08,1.17c.72-.9,1.69-1.36,2.91-1.36,1.07,0,1.87,.31,2.4,.94,.52,.63,.79,1.57,.8,2.83v6.54h-2.7v-6.47c0-.57-.12-.99-.37-1.25-.25-.26-.66-.39-1.24-.39-.76,0-1.33,.32-1.71,.97v7.14h-2.7v-10.12h2.54Z"/><path class="cls-1" d="M138.42,28.96c0-1.55,.37-2.8,1.11-3.75,.74-.95,1.74-1.42,2.99-1.42,1.11,0,1.97,.38,2.59,1.14l.11-.95h2.45v9.78c0,.89-.2,1.66-.6,2.31-.4,.65-.97,1.15-1.7,1.5-.73,.34-1.58,.51-2.56,.51-.74,0-1.46-.15-2.17-.44s-1.24-.68-1.6-1.15l1.2-1.65c.67,.75,1.49,1.13,2.45,1.13,.72,0,1.28-.19,1.67-.58,.4-.38,.6-.93,.6-1.63v-.54c-.62,.71-1.44,1.06-2.46,1.06-1.22,0-2.2-.48-2.95-1.43-.75-.95-1.13-2.21-1.13-3.78v-.11Zm2.7,.2c0,.92,.18,1.64,.55,2.16s.87,.78,1.52,.78c.82,0,1.41-.31,1.77-.93v-4.26c-.36-.62-.94-.93-1.75-.93-.65,0-1.16,.27-1.53,.8-.37,.53-.56,1.32-.56,2.38Z"/></g><circle class="cls-3" cx="10.36" cy="27.48" r="6.03"/><g><circle class="cls-5" cx="13.45" cy="25.32" r="1.19"/><circle class="cls-5" cx="7.76" cy="30.93" r="1.19"/><circle class="cls-5" cx="9.07" cy="26.91" r="1"/><circle class="cls-5" cx="12.03" cy="27.91" r=".36"/><circle class="cls-5" cx="6.32" cy="24.55" r=".36"/><circle class="cls-5" cx="9.65" cy="23.41" r=".66"/><circle class="cls-5" cx="5.67" cy="27.25" r=".66"/><circle class="cls-5" cx="11.29" cy="30.14" r=".66"/></g><path class="cls-2" d="M20.49,31.43c0,1.14-.92,2.06-2.06,2.06s-2.06-.92-2.06-2.06c0-.09,.01-.18,.02-.26-.21,.08-.45,.13-.69,.13-.22,0-.43-.04-.62-.1-.24,.78-.97,1.35-1.84,1.35-1.07,0-1.93-.86-1.93-1.93s.86-1.93,1.93-1.93c.22,0,.43,.04,.62,.11,.24-.79,.97-1.36,1.84-1.36,1.06,0,1.93,.86,1.93,1.93,0,.05,0,.11-.01,.16,.25-.1,.53-.16,.81-.16,1.14,0,2.06,.92,2.06,2.06Z"/><path class="cls-4" d="M20.43,33.92c0,.88-.71,1.58-1.59,1.58h-7.34c-1.39,0-2.52-1.12-2.52-2.51s1.13-2.52,2.52-2.52c.29,0,.56,.05,.82,.14,.28-.8,1.05-1.38,1.96-1.38s1.71,.61,1.98,1.45c.23-.14,.49-.21,.78-.21,.88,0,1.58,.71,1.58,1.58,0,.1-.01,.2-.03,.3,.08,0,.17-.02,.25-.02,.88,0,1.59,.71,1.59,1.59Z"/></svg>