<?xml version="1.0" encoding="UTF-8"?><svg id="Layer_2" xmlns="http://www.w3.org/2000/svg" viewBox="0 0 373.8 329.15"><defs><style>.cls-1,.cls-2,.cls-3,.cls-4,.cls-5,.cls-6,.cls-7,.cls-8,.cls-9,.cls-10,.cls-11{stroke-linecap:round;}.cls-1,.cls-2,.cls-3,.cls-4,.cls-5,.cls-6,.cls-7,.cls-8,.cls-9,.cls-10,.cls-11,.cls-12{fill:none;stroke-linejoin:round;}.cls-1,.cls-2,.cls-3,.cls-10,.cls-11,.cls-12{stroke-width:5.57px;}.cls-1,.cls-6{stroke:#3f3f3f;}.cls-13{fill:#e1e3f7;}.cls-2,.cls-14,.cls-9{stroke:#797a85;}.cls-15,.cls-14{fill:#fff;}.cls-3{stroke:#5d5d5d;}.cls-16{fill:#3f3f3f;}.cls-4,.cls-7{stroke:#fff;stroke-width:3.2px;}.cls-17{fill:#fcdc92;stroke:#fdcb4c;stroke-width:3.48px;}.cls-17,.cls-14{stroke-miterlimit:10;}.cls-18{fill:#2c3aad;}.cls-19{fill:#121847;}.cls-5{stroke:#e1e3f7;stroke-width:3.34px;}.cls-6,.cls-8{stroke-width:2.78px;}.cls-14{stroke-width:4.18px;}.cls-20{fill:#9da5bf;}.cls-7{stroke-dasharray:0 0 0 0 .37 7.36 7.36 .37;}.cls-8{stroke:#b8bded;}.cls-9{stroke-width:6.96px;}.cls-10{stroke:#494949;}.cls-21{fill:#797a85;}.cls-22{fill:#b8bded;}.cls-11{stroke:#535353;}.cls-12{stroke:#2c3aad;}.cls-23{fill:#9e9fad;}</style></defs><g id="Layer_15"><g><rect id="o2Tank" class="cls-20" x="229.15" y="66.26" width="116.36" height="150.37" rx="18.59" ry="18.59" transform="translate(27.43 -45.69) rotate(9.54)"/><g id="armR"><line class="cls-1" x1="367.66" y1="190.41" x2="359.27" y2="212.65"/><line class="cls-10" x1="362.73" y1="192.01" x2="354.33" y2="214.25"/><line class="cls-11" x1="357.64" y1="192.37" x2="349.24" y2="214.6"/><line class="cls-3" x1="352.83" y1="191.96" x2="344.43" y2="214.2"/><line class="cls-3" x1="352.83" y1="191.96" x2="340.72" y2="205.05"/><path class="cls-22" d="M352.45,210.73c.75,.22,1.51,.37,2.26,.45,5.7,.58,11.19-2.95,12.89-8.64,.72-2.43,1.33-4.82,1.83-7.16l-23.87-4.92c-.36,1.68-.79,3.38-1.31,5.12-1.92,6.45,1.75,13.23,8.2,15.15Z"/><path class="cls-13" d="M302.68,114.53c.67,6.27,5.96,10.91,12.13,10.91,2.14,.81,6.72,4.12,9.42,6.57,.34,.31,.58,.52,.96,.79,1.09,.82,25.36,19.67,21.31,52.16-.22,1.79-.53,3.63-.93,5.5l23.87,4.92c.4-1.86,.73-3.68,.99-5.48,1.33-8.95,1.12-17.16-.06-24.57-.22-1.41-.47-2.78-.76-4.13-1.5-6.99-3.81-13.18-6.39-18.46-.62-1.29-1.27-2.54-1.92-3.72-.41-.76-.83-1.48-1.25-2.19-7.86-13.34-17.25-21.18-19.8-23.17-5.88-5.29-16.8-13.55-26.72-12.5-6.69,.71-11.55,6.7-10.84,13.39Z"/><path class="cls-21" d="M352.92,150.41c-.78,7.65,4.82,14.52,12.48,15.29,1.72,.17,3.39,.03,4.97-.39-.22-1.41-.47-2.78-.76-4.13-1.19,.36-2.47,.5-3.78,.37-5.37-.54-9.29-5.35-8.75-10.72,.38-3.76,2.85-6.81,6.14-8.11-.62-1.29-1.27-2.54-1.92-3.72-4.5,1.94-7.85,6.2-8.38,11.41Z"/><path class="cls-18" d="M344.52,190.23l1.05,.22,23.87,4.92,1.01,.21c.1,.02,.19,.03,.28,.04,1.41,.14,2.72-.8,3.01-2.21,.31-1.51-.66-2.98-2.16-3.29l-1.15-.24-23.93-4.93-.86-.18c-1.5-.31-2.98,.66-3.28,2.17-.31,1.51,.66,2.98,2.16,3.29Z"/><ellipse class="cls-13" cx="345.36" cy="123.48" rx="11.02" ry="13.31" transform="translate(-.29 246.14) rotate(-39.21)"/><polyline class="cls-8" points="356.35 130.45 330.94 136.26 339.81 112.03"/></g><g id="armL"><line class="cls-1" x1="198.87" y1="164.52" x2="201.09" y2="188.19"/><line class="cls-10" x1="203.21" y1="167.37" x2="205.42" y2="191.04"/><line class="cls-11" x1="208.02" y1="169.06" x2="210.24" y2="192.73"/><line class="cls-3" x1="212.77" y1="169.94" x2="214.99" y2="193.61"/><line class="cls-3" x1="212.77" y1="169.94" x2="220.98" y2="185.76"/><path class="cls-22" d="M208.17,188.14c-.79,.02-1.55-.04-2.3-.17-5.65-.95-10.02-5.81-10.15-11.74-.05-2.54,0-5,.13-7.39l24.32,1.57c-.1,1.71-.13,3.47-.09,5.29,.15,6.72-5.19,12.3-11.91,12.45Z"/><path class="cls-13" d="M274.69,92.74c-9.29-3.63-22.01,1.45-29.08,4.99-2.99,1.25-14.12,6.32-25.23,17.11-.59,.57-1.18,1.16-1.78,1.78-.94,.97-1.89,2-2.83,3.08-3.88,4.42-7.75,9.77-11.04,16.12-.64,1.22-1.24,2.48-1.83,3.78-3.1,6.83-5.48,14.69-6.56,23.68-.23,1.8-.39,3.65-.5,5.55l24.32,1.57c.1-1.91,.29-3.76,.55-5.55,4.69-32.4,33.07-44.16,34.34-44.66,.44-.16,.73-.3,1.14-.51,3.25-1.66,8.55-3.63,10.82-3.85,5.94,1.63,12.28-1.44,14.58-7.31,2.45-6.27-.65-13.33-6.91-15.78Z"/><path class="cls-21" d="M218.61,116.63c-.94,.97-1.89,2-2.83,3.08,2.83,2.13,4.4,5.72,3.78,9.45-.89,5.32-5.95,8.92-11.27,8.02-1.3-.22-2.5-.69-3.55-1.35-.64,1.22-1.24,2.48-1.83,3.78,1.41,.82,2.98,1.41,4.69,1.69,7.59,1.28,14.8-3.86,16.08-11.45,.87-5.16-1.24-10.16-5.06-13.22Z"/><path class="cls-18" d="M221.24,170.47l-1.07-.07-24.32-1.57-1.03-.07c-.1,0-.19-.02-.28-.03-1.39-.23-2.41-1.49-2.32-2.92,.1-1.54,1.43-2.7,2.96-2.6l1.17,.08,24.38,1.57,.88,.06c1.53,.1,2.7,1.42,2.59,2.96-.1,1.54-1.42,2.7-2.96,2.6Z"/><ellipse class="cls-13" cx="238.08" cy="105.87" rx="13.31" ry="11.02" transform="translate(-17.27 157.73) rotate(-35.46)"/><polyline class="cls-8" points="225.63 109.69 248.61 122.01 246.46 96.3"/></g><g id="legs"><g id="lL"><path class="cls-13" d="M271.51,312.32c-2.44-.41-4.78-1.57-6.65-3.46-4.72-4.79-4.66-12.51,.13-17.23,15.02-14.8,22.37-29.17,21.86-42.71-.6-15.95-12.05-26.07-12.17-26.17-5.13-4.35-5.77-12.04-1.42-17.17,4.35-5.13,12.04-5.77,17.17-1.42,.81,.68,19.76,17.03,20.77,43.85,.78,20.67-9.02,41.18-29.11,60.98-2.9,2.85-6.86,3.96-10.58,3.33Z"/><g><path class="cls-13" d="M256.92,298.11l26.03,29.19c7.09-6.32,7.72-17.3,1.4-24.4l-14.53-16.29-12.9,11.5Z"/><line class="cls-12" x1="256.92" y1="298.11" x2="282.96" y2="327.3"/><path class="cls-13" d="M287.21,303.68l-1.69,1.31,1.1,1.24c-.31-.83,.04-1.78,.59-2.54Z"/><path class="cls-23" d="M293.5,296.26c-.71,.92-1.45,1.85-2.23,2.76-.09-.08-.17-.17-.24-.27-1.46-1.97-3.28-3.05-5.6-3.3-4.16-.45-8.98,1.84-12.63,4.1-3.27,2.03-5.6,4.06-5.65,4.11-.1,.09-.21,.16-.33,.23-.03,.02-.05,.03-.06,.03-.08,.04-.17,.08-.26,.1-.07,.02-.15,.04-.22,.05-.1,.01-.21,.02-.31,.02-.09,0-.18,0-.26-.02-.07-.01-.14-.03-.2-.05-.05-.01-.1-.03-.15-.05-.07-.03-.13-.05-.2-.09-.07-.03-.13-.08-.2-.13-.11-.08-.22-.19-.32-.31-.04-.04-.08-.09-.11-.15-.03-.04-.05-.08-.07-.12-.03-.05-.05-.1-.08-.16-.1-.22-.14-.45-.13-.69,0-.09,0-.18,.02-.26,.01-.07,.03-.14,.05-.2,.02-.05,.03-.1,.05-.15,.03-.07,.05-.13,.09-.2,.03-.07,.08-.13,.12-.2,0,0,0-.01,.02-.02,.02-.03,.04-.06,.07-.08,.06-.09,.15-.17,.24-.24,.1-.08,.2-.14,.32-.2,.05-.02,3.08-1.52,5.4-3.99,1.19-1.27,2.19-2.79,2.51-4.49,.4-2.16-.42-4.43-2.43-6.73,.79-.9,1.55-1.79,2.28-2.68,3,3.27,4.2,6.65,3.58,10.05-.05,.27-.11,.55-.19,.81,3.03-1.28,6.32-2.11,9.43-1.78,3.11,.33,5.71,1.77,7.7,4.27Z"/><path class="cls-18" d="M267.61,310.09c2.88-1.2,4.8-4.13,4.57-7.41-.29-4.1-3.86-7.19-7.96-6.89-2.56,.18-4.73,1.64-5.92,3.72l9.31,10.59Z"/></g><polyline class="cls-8" points="311.39 250.41 286.83 257.51 305.65 275.45"/></g><g id="lR"><path class="cls-13" d="M237.33,285.2c-2.69-.45-5.25-1.81-7.18-4.03-14.08-16.23-14.21-30.51-11.84-39.63,6.77-26.03,40.35-38.87,44.16-40.25,6.33-2.29,13.31,.98,15.6,7.3,2.29,6.32-.97,13.3-7.29,15.6-6.56,2.41-25.91,11.89-28.9,23.51-.48,1.87-1.95,7.57,6.67,17.51,4.41,5.08,3.86,12.78-1.22,17.19-2.86,2.48-6.55,3.39-10.01,2.81Z"/><g><path class="cls-13" d="M258.24,275.54l-28.68,26.59c-6.46-6.97-6.05-17.96,.92-24.42l16.01-14.84,11.75,12.67Z"/><line class="cls-12" x1="258.24" y1="275.54" x2="229.56" y2="302.13"/><path class="cls-13" d="M227.77,278.21l1.36,1.46-1.21,1.13c.38-.8,.34-1.78-.14-2.59Z"/><path class="cls-23" d="M251.08,279.88c-.01,.08-.03,.14-.05,.22-.01,.03-.02,.06-.04,.09,0,0,0,0,0,0-.03,.07-.05,.14-.09,.2-.04,.08-.09,.15-.14,.22,0,.01-.01,.02-.02,.03-.06,.08-.12,.14-.19,.21-.03,.03-.06,.05-.09,.08-.03,.04-.08,.07-.13,.1-.15,.1-.32,.18-.5,.23-.08,.02-.16,.04-.25,.05-.07,0-.15,.02-.23,.01-.09,0-.19,0-.28-.02-.08-.01-.17-.04-.25-.06h-.03c-.07-.03-.15-.06-.22-.1-.01,0-.02,0-.03-.01-.17-.09-.32-.2-.46-.35-.05-.05-2.17-2.31-5.23-4.66-3.4-2.62-7.97-5.36-12.14-5.32-2.33,.02-4.26,.91-5.9,2.73-.08,.09-.17,.17-.27,.24-.67-1.04-1.28-2.07-1.84-3.08,2.22-2.22,4.9-3.35,7.99-3.37,3.12-.03,6.32,1.13,9.2,2.71-.05-.27-.09-.55-.11-.83-.29-3.46,1.25-6.71,4.58-9.67,.55,.92,1.2,1.9,1.97,2.92-2.22,2.09-3.26,4.25-3.07,6.44,.15,1.73,.99,3.34,2.05,4.71,2.07,2.69,4.94,4.49,4.98,4.52,.06,.04,.11,.08,.17,.12,.07,.05,.14,.12,.2,.18,.02,.02,.04,.04,.05,.06,.05,.07,.1,.13,.14,.19,.09,.14,.16,.29,.2,.44,0,0,0,.01,0,.02,.02,.08,.04,.17,.05,.25,.01,.08,.01,.16,.02,.24,0,.09,0,.18-.02,.27Z"/><path class="cls-18" d="M246.47,286.46c-2.75-1.46-4.39-4.57-3.84-7.81,.68-4.05,4.52-6.79,8.58-6.11,2.53,.43,4.55,2.09,5.54,4.26l-10.27,9.66Z"/></g><polyline class="cls-8" points="217.06 253.15 241.63 246.05 223.13 230.02"/></g></g><g id="body"><polygon id="body-2" class="cls-13" points="306.16 228.87 240.95 217.9 252.51 100 333.8 113.67 306.16 228.87"/><path class="cls-13" d="M241.74,209.91l.14,2.25-1.44,.81c.56-.69,1.21-2.13,1.3-3.06Z"/><path class="cls-13" d="M306.94,225.58l-.83,1.57,.91,1.26c-.31-.83-.33-1.9-.08-2.83Z"/><line class="cls-2" x1="249.52" y1="140.12" x2="323.51" y2="152.56"/><line class="cls-9" x1="291.03" y1="119.47" x2="273.56" y2="223.39"/><g><rect class="cls-14" x="254.76" y="128.63" width="63.51" height="35.41" rx="7.12" ry="7.12" transform="translate(28.23 -45.48) rotate(9.54)"/><circle class="cls-17" cx="270.27" cy="143.61" r="7.57"/><g><line class="cls-6" x1="292.06" y1="139.83" x2="311.44" y2="143.08"/><line class="cls-6" x1="291.24" y1="144.71" x2="310.61" y2="147.97"/><line class="cls-6" x1="290.41" y1="149.6" x2="309.79" y2="152.86"/><line class="cls-6" x1="289.59" y1="154.49" x2="308.97" y2="157.75"/></g></g></g><g id="head"><ellipse class="cls-18" cx="294.64" cy="98.03" rx="23.64" ry="48.78" transform="translate(149.1 372.33) rotate(-80.46)"/><rect class="cls-13" x="340.6" y="73.53" width="10.54" height="27.91" rx="5.27" ry="5.27" transform="translate(19.3 -56.14) rotate(9.54)"/><rect class="cls-13" x="244.39" y="57.36" width="10.54" height="27.91" rx="5.27" ry="5.27" transform="translate(15.28 -40.41) rotate(9.54)"/><path class="cls-13" d="M348.96,85.91c-4.72,28.08-29.22,34.54-57.3,29.82-28.08-4.72-49.12-18.83-44.4-46.92s31.32-47.02,59.4-42.3c28.08,4.72,47.02,31.32,42.3,59.4Z"/><g><path class="cls-19" d="M327.73,56.39c11,3.92,18.57,14.92,17.52,26.67-.3,2.36-.5,3.53-.98,5.85-2.86,11.51-13.69,19.3-25.33,19.76-18.24-.1-33.56-2.56-50.74-8.56-10.81-4.32-18.56-15.09-17.48-26.94,.3-2.36,.5-3.53,.98-5.85,2.85-11.45,13.6-19.36,25.27-19.47,16.89,1.81,34.21,4.74,50.76,8.53Z"/><path class="cls-21" d="M268.51,98.27c-9.99-3.89-17.21-13.9-16.2-24.82,.31-2.36,.5-3.53,.98-5.85,2.6-10.57,12.61-17.89,23.37-17.92,16.92,1.95,34.14,4.87,50.77,8.53,10.17,3.55,17.22,13.75,16.23,24.58-.31,2.36-.5,3.53-.98,5.85-2.61,10.62-12.69,17.84-23.42,18.18-18.03-.46-33.63-2.99-50.74-8.55m-.58,3.52c17.18,6.25,32.4,8.67,50.73,8.56,12.54-.45,24.11-8.79,27.2-21.17,.48-2.33,.68-3.5,.98-5.85,1.12-12.64-6.97-24.42-18.82-28.6-16.48-3.9-33.9-6.85-50.76-8.53-12.57,.08-24.07,8.55-27.14,20.87-.48,2.33-.68,3.5-.98,5.85-1.14,12.76,7.13,24.26,18.79,28.88h0Z"/></g><g><path class="cls-4" d="M255.67,72.32c.26-1.54,.72-2.98,.94-4.47,.12-.79,.31-1.57,.57-2.33"/><path class="cls-7" d="M261.14,59.4c3.5-3.49,8.53-5.9,13.53-6.46"/><path class="cls-4" d="M274.86,52.92c2.36-.24,4.72-.08,6.9,.58"/></g></g><g id="o2Pipes"><circle class="cls-21" cx="297.27" cy="193.35" r="7.5"/><path class="cls-16" d="M330.21,223.66c-.61,2.17-2.32,5.05-7.11,6.41-1.44,.41-2.89,.5-4.33,.25-3.95-.66-7.89-3.78-11.78-9.34-1.57-2.24-3.13-4.88-4.68-7.92-4.65-9.1-7.59-18.5-7.71-18.9-.46-1.47,.36-3.02,1.84-3.48,1.47-.45,3.02,.37,3.48,1.84,2.68,8.65,8.99,23.8,15.41,29.8,2.11,1.99,4.24,2.96,6.25,2.39,2.49-.71,3.05-1.79,3.27-2.54,.13-.47,.17-1,.13-1.59,1.82-.87,3.5-2.03,4.95-3.44,.66,2.26,.85,4.49,.3,6.51Z"/><circle class="cls-21" cx="260.97" cy="187.25" r="7.5"/><path class="cls-16" d="M263.22,188.9c-.25,.34-6.09,8.27-13.47,15.34-2.46,2.36-4.8,4.35-7.02,5.95-5.48,3.98-10.23,5.64-14.18,4.97-1.44-.24-2.78-.79-4.01-1.65-4.07-2.85-4.76-6.14-4.61-8.39,.13-2.09,1.05-4.14,2.4-6.06,.9,1.8,2.11,3.45,3.55,4.87-.23,.54-.37,1.06-.4,1.55-.05,.78,.13,1.98,2.25,3.47,1.71,1.2,4.04,.97,6.69-.22h0c8.02-3.57,18.94-15.83,24.3-23.12,.92-1.24,2.65-1.51,3.89-.6,1.24,.92,1.51,2.65,.6,3.89Z"/></g></g><g id="laptop"><path class="cls-13" d="M185.01,244.11H91.4c-2.94,0-7.8,1.29-10.79,2.88l-26.35,13.95c1.25,.11,2.49,.27,3.71,.5,4.02,.77,7.78,2.11,11.95,1.9,3.8-.19,7.19-1.15,11.04-.87,4.04,.3,8.03,.53,12.07,.13,8.7-.87,16.56-2.64,25.38-2.26,6.77,.29,16.37-.92,22.26,3.14,.34,.23,.63,.48,.89,.75,3.21-.02,6.36-1.46,9.13,.16,.22,.13,.59,.23,.86,.17,.21-.05,.6-.25,.69-.28l32.68-17.3c1.55-.82,2.31-1.56,2.26-2.09-.04-.49-.76-.79-2.18-.79Z"/><polygon class="cls-13" points="187.2 242.42 187.2 244.92 185.34 244.15 187.2 242.42"/><path class="cls-22" d="M185.01,241.59H91.4c-2.94,0-7.8,1.29-10.79,2.88l-30.68,16.24c2.71,.06,5.42,.23,8.05,.73,4.02,.77,7.78,2.11,11.95,1.9,3.8-.19,7.19-1.15,11.04-.87,4.04,.3,8.03,.53,12.07,.13,8.7-.87,16.56-2.64,25.38-2.26,6.77,.29,16.37-.92,22.26,3.14,.34,.24,.64,.49,.9,.77,2.02-.02,4.04-.03,6.05-.04l37.29-19.74c2.99-1.58,3.03-2.88,.08-2.88Z"/><path class="cls-15" d="M163.4,249.13h-53.9c-1.7,0-4.49,.75-6.21,1.66l-22.11,11.7c3.97,.29,7.9,.51,11.87,.11,8.7-.87,16.56-2.64,25.38-2.26,6.54,.28,15.72-.82,21.64,2.76l23.27-12.32c1.72-.91,1.74-1.66,.05-1.66Z"/><path class="cls-13" d="M148.59,264.9H54.98c-2.94,0-7.11-2.41-9.26-5.35L3.22,201.39c-2.15-2.94-1.5-5.35,1.44-5.35H98.28c2.94,0,7.11,2.41,9.26,5.35l42.49,58.16c2.15,2.94,1.5,5.35-1.44,5.35Z"/><path class="cls-22" d="M146.64,264.9H53.03c-2.94,0-7.11-2.41-9.26-5.35L1.27,201.39c-2.15-2.94-1.5-5.35,1.44-5.35H96.32c2.94,0,7.11,2.41,9.26,5.35l42.49,58.16c2.15,2.94,1.5,5.35-1.44,5.35Z"/><ellipse class="cls-15" cx="74.68" cy="230.47" rx="8.52" ry="14.72" transform="translate(-153.97 150.39) rotate(-52.75)"/></g><g id="database"><g><ellipse class="cls-22" cx="76.63" cy="124.94" rx="42.59" ry="20.53"/><rect class="cls-22" x="34.04" y="111.26" width="85.18" height="13.68"/><path class="cls-5" d="M61.58,137.16c-7.07-1.29-14.31-3.51-20.23-7.7"/><ellipse class="cls-13" cx="76.63" cy="111.26" rx="42.59" ry="20.53"/><circle class="cls-15" cx="108.17" cy="131.75" r="1.66"/><circle class="cls-15" cx="112.23" cy="129.22" r="1.66"/></g><g><ellipse class="cls-22" cx="76.63" cy="104.87" rx="42.59" ry="20.53"/><rect class="cls-22" x="34.04" y="91.19" width="85.18" height="13.68"/><path class="cls-5" d="M61.58,117.09c-7.07-1.29-14.31-3.51-20.23-7.7"/><ellipse class="cls-13" cx="76.63" cy="91.19" rx="42.59" ry="20.53"/><circle class="cls-15" cx="108.17" cy="111.68" r="1.66"/><circle class="cls-15" cx="112.23" cy="109.15" r="1.66"/></g><g><ellipse class="cls-22" cx="76.63" cy="84.8" rx="42.59" ry="20.53"/><rect class="cls-22" x="34.04" y="71.12" width="85.18" height="13.68"/><path class="cls-5" d="M61.58,97.02c-6.93-1.26-14-3.42-19.85-7.44"/><ellipse class="cls-13" cx="76.63" cy="71.12" rx="42.59" ry="20.53"/><circle class="cls-15" cx="108.17" cy="91.61" r="1.66"/><circle class="cls-15" cx="112.23" cy="89.08" r="1.66"/></g></g><g id="controller"><ellipse class="cls-22" cx="186.11" cy="13.73" rx="28.36" ry="13.73"/><circle class="cls-22" cx="214.47" cy="45.3" r="7.81"/><circle class="cls-22" cx="157.74" cy="45.3" r="7.81"/><polygon class="cls-22" points="163.32 50.77 178.95 30.2 154.33 10.19 149.93 44.24 163.32 50.77"/><polygon class="cls-22" points="208.89 50.77 193.27 30.2 217.88 10.19 222.28 44.24 208.89 50.77"/><circle class="cls-13" cx="196.86" cy="26.96" r="5.42"/><circle class="cls-13" cx="175.92" cy="26.96" r="5.42"/><circle class="cls-13" cx="167.6" cy="13.73" r="13.73"/><circle class="cls-13" cx="205.18" cy="13.73" r="13.73"/><circle class="cls-22" cx="175.92" cy="26.96" r="3.52"/><circle class="cls-22" cx="196.86" cy="26.96" r="3.52"/><circle class="cls-22" cx="205.18" cy="7.63" r="3.19"/><circle class="cls-22" cx="205.18" cy="19.84" r="3.19"/><circle class="cls-22" cx="211.28" cy="13.73" r="3.19"/><circle class="cls-22" cx="199.07" cy="13.73" r="3.19"/><path class="cls-22" d="M173.71,16.92c-1.76,0-5.16-1.43-5.16-3.19s3.4-3.19,5.16-3.19,3.19,1.43,3.19,3.19-1.43,3.19-3.19,3.19Z"/><path class="cls-22" d="M161.49,10.55c1.76,0,5.16,1.43,5.16,3.19s-3.4,3.19-5.16,3.19-3.19-1.43-3.19-3.19c0-1.76,1.43-3.19,3.19-3.19Z"/><path class="cls-22" d="M164.41,19.84c0-1.76,1.43-5.16,3.19-5.16s3.19,3.4,3.19,5.16-1.43,3.19-3.19,3.19-3.19-1.43-3.19-3.19Z"/><path class="cls-22" d="M170.79,7.63c0,1.76-1.43,5.16-3.19,5.16s-3.19-3.4-3.19-5.16,1.43-3.19,3.19-3.19,3.19,1.43,3.19,3.19Z"/><circle class="cls-15" cx="186.39" cy="3.58" r="1.56"/></g></g></svg>