<?xml version="1.0" encoding="UTF-8"?><svg id="Layer_2" xmlns="http://www.w3.org/2000/svg" viewBox="0 0 512 512"><defs><style>.cls-1{fill:#818eff;}</style></defs><g id="Layer_10"><path class="cls-1" d="M256,19.99c31.87,0,62.78,6.24,91.86,18.54,28.1,11.89,53.34,28.91,75.03,50.59,21.68,21.68,38.7,46.92,50.59,75.03,12.3,29.08,18.54,59.99,18.54,91.86s-6.24,62.78-18.54,91.86c-11.89,28.1-28.91,53.34-50.59,75.03-21.68,21.68-46.92,38.7-75.03,50.59-29.08,12.3-59.99,18.54-91.86,18.54s-62.78-6.24-91.86-18.54c-28.1-11.89-53.34-28.91-75.03-50.59-21.68-21.68-38.7-46.92-50.59-75.03-12.3-29.08-18.54-59.99-18.54-91.86s6.24-62.78,18.54-91.86c11.89-28.1,28.91-53.34,50.59-75.03,21.68-21.68,46.92-38.7,75.03-50.59,29.08-12.3,59.99-18.54,91.86-18.54m0-19.99C114.61,0,0,114.62,0,256s114.61,256,256,256,256-114.62,256-256S397.38,0,256,0h0Z"/><g><path class="cls-1" d="M347.67,374.05c16.8,0,30.46,13.66,30.46,30.46s-13.67,30.46-30.46,30.46-30.46-13.66-30.46-30.46,13.67-30.46,30.46-30.46m0-19.99c-27.86,0-50.45,22.59-50.45,50.45s22.59,50.45,50.45,50.45,50.45-22.59,50.45-50.45-22.59-50.45-50.45-50.45h0Z"/><path class="cls-1" d="M148.23,92.24c16.8,0,30.46,13.66,30.46,30.46s-13.67,30.46-30.46,30.46-30.46-13.66-30.46-30.46,13.67-30.46,30.46-30.46m0-19.99c-27.86,0-50.45,22.59-50.45,50.45s22.59,50.45,50.45,50.45,50.45-22.59,50.45-50.45-22.59-50.45-50.45-50.45h0Z"/><path class="cls-1" d="M284.71,212.24c15.2,0,27.57,12.37,27.57,27.57s-12.37,27.57-27.57,27.57-27.57-12.37-27.57-27.57,12.37-27.57,27.57-27.57m0-14.99c-23.5,0-42.56,19.05-42.56,42.56s19.05,42.56,42.56,42.56,42.56-19.05,42.56-42.56-19.05-42.56-42.56-42.56h0Z"/><path class="cls-1" d="M213.99,434.32c2.94,0,5.32,2.39,5.32,5.32s-2.39,5.32-5.32,5.32-5.32-2.39-5.32-5.32,2.39-5.32,5.32-5.32m0-9.99c-8.46,0-15.32,6.86-15.32,15.32s6.86,15.32,15.32,15.32,15.32-6.86,15.32-15.32-6.86-15.32-15.32-15.32h0Z"/><path class="cls-1" d="M427,122.83c2.94,0,5.32,2.39,5.32,5.32s-2.39,5.32-5.32,5.32-5.32-2.39-5.32-5.32,2.39-5.32,5.32-5.32m0-9.99c-8.46,0-15.32,6.86-15.32,15.32s6.86,15.32,15.32,15.32,15.32-6.86,15.32-15.32-6.86-15.32-15.32-15.32h0Z"/><path class="cls-1" d="M41.03,250.68c2.94,0,5.32,2.39,5.32,5.32s-2.39,5.32-5.32,5.32-5.32-2.39-5.32-5.32,2.39-5.32,5.32-5.32m0-9.99c-8.46,0-15.32,6.86-15.32,15.32s6.86,15.32,15.32,15.32,15.32-6.86,15.32-15.32-6.86-15.32-15.32-15.32h0Z"/><path class="cls-1" d="M455.32,257.25c7.35,0,13.33,5.95,13.33,13.26s-5.98,13.26-13.33,13.26-13.33-5.95-13.33-13.26,5.98-13.26,13.33-13.26m0-14.99c-15.64,0-28.32,12.65-28.32,28.25s12.68,28.25,28.32,28.25,28.32-12.65,28.32-28.25-12.68-28.25-28.32-28.25h0Z"/><path class="cls-1" d="M312.59,59.37c7.1,0,12.88,5.78,12.88,12.88s-5.78,12.88-12.88,12.88-12.88-5.78-12.88-12.88,5.78-12.88,12.88-12.88m0-14.99c-15.4,0-27.88,12.48-27.88,27.88s12.48,27.88,27.88,27.88,27.88-12.48,27.88-27.88-12.48-27.88-27.88-27.88h0Z"/><path class="cls-1" d="M143.4,313.13c7.77,0,14.1,6.29,14.1,14.03s-6.32,14.03-14.1,14.03-14.1-6.29-14.1-14.03,6.32-14.03,14.1-14.03m0-14.99c-16.06,0-29.09,12.99-29.09,29.02s13.02,29.02,29.09,29.02,29.09-12.99,29.09-29.02-13.02-29.02-29.09-29.02h0Z"/></g></g></svg>