<?xml version="1.0" encoding="UTF-8"?><svg id="Layer_7" xmlns="http://www.w3.org/2000/svg" viewBox="0 0 152 57"><defs><style>.cls-1{fill:#ffeb20;}.cls-2{fill:#fff520;}.cls-3{fill:#f5f6fc;}.cls-4{fill:#ffbe20;}.cls-5{fill:#ffd220;}.cls-6{fill:#ffffc1;}.cls-7{fill:#ffdc20;}</style></defs><path class="cls-2" d="M23.21,31.41c.25-.96,1.51-6.94-3.43-14.11-.03-.04-.02-.1,.03-.13,.03-.02,.08-.02,.11,0,5.58,4.19,5.99,8.85,6.09,13.97,0,.05-.04,.09-.09,.1l-2.62,.29c-.05,0-.1-.03-.11-.08,0-.01,0-.02,0-.04Z"/><path class="cls-2" d="M23.19,31.5c.36-1.58,3.12-12.66,8.7-15.41,.05-.02,.1,0,.13,.04,.02,.04,.01,.09-.02,.11-2.39,2.51-3,4.12-6.39,14.3,0,.03-.03,.05-.05,.06l-2.23,1.01s-.11,0-.13-.05c0-.02-.01-.04,0-.06Z"/><path class="cls-1" d="M23.18,31.14c.03-2.01-.58-8.88-9.93-12.53-.05-.02-.07-.07-.05-.12,.02-.04,.05-.06,.09-.06,5.28,.45,9.81,3.93,11.61,8.91,0,.02,0,.05,0,.07-.51,1.25-1.02,2.51-1.53,3.76-.01,.05-.07,.08-.12,.07-.04-.01-.07-.05-.07-.1Z"/><path class="cls-1" d="M23.18,31.51c.29-1.31,2.42-9.16,11.4-10.17,.05,0,.1,.04,.1,.09,0,.04-.02,.07-.05,.09-3.35,1.45-6.12,1.63-9.02,9.04,0,.02-.03,.04-.05,.05l-2.24,1.02s-.1,0-.13-.04c-.01-.02-.01-.05,0-.07Z"/><path class="cls-7" d="M23.15,31.4c-.04-1.09-.83-4.92-9.81-5.83-.05-.01-.08-.07-.06-.12,0-.03,.03-.06,.06-.06,1.42-.22,2.87-.23,4.3-.04,2.83,.41,5.49,1.59,7.68,3.43l-2,2.68s-.09,.06-.13,.04c-.03-.02-.05-.05-.05-.09Z"/><path class="cls-7" d="M23.28,31.44c.75-1.29,4.52-7.08,11.48-5.89,.05,.01,.08,.07,.06,.12,0,.03-.03,.06-.06,.06-3.24,.57-4.74,.36-9.15,4.84,0,0-.02,.01-.03,.02l-2.17,.98s-.11,0-.13-.05c-.01-.03-.01-.05,0-.08Z"/><path class="cls-5" d="M23.28,31.54c.62-.73,3.45-3.67,7.9-2.91,.05,.02,.08,.07,.06,.12,0,.03-.03,.05-.06,.06-1.78,.15-5.29,.98-6.77,2.83-.02,.02-.04,.03-.07,.03l-.98,.02c-.05,0-.1-.03-.1-.08,0-.03,0-.05,.02-.07Z"/><path class="cls-4" d="M25.46,31.64c.33-.2,4.5-2.61,9.37,.4,.04,.03,.1,.02,.13-.02,.03-.04,.02-.1-.02-.13-3.55-3.07-6.94-3.36-11.8-.19l2.27-.04s.03,0,.05-.01Z"/><path class="cls-5" d="M23.14,31.7s-.53-2.91-7.61-3.15h0c1.27-.26,2.58-.36,3.88-.3,2.06,.11,4.08,.63,5.93,1.54l-2.2,1.91Z"/><path class="cls-4" d="M23.14,31.7s-5.83-3.06-12.95,1.15c-.05,.03-.07,.04-.08,.03s3.39-2.55,6.71-3.27c1.57-.34,4.24-.51,7.85,1.17l-1.53,.91Z"/><path class="cls-6" d="M44.49,40.92s-.03,0-.05,0h0c-.07,0-.14,0-.2-.05l-.12-.09c-.21-.15-.42-.29-.63-.43-.33-.2-.68-.4-1.03-.59-.87-.47-1.76-.89-2.67-1.27-4.08-1.71-8.94-2.75-14.2-2.87-.34,0-.68-.01-1.03-.01-.4,0-.79,0-1.18,.01-.47,.01-.94,.03-1.4,.06h-.08c-.64,.04-1.27,.09-1.89,.15h-.09s-.05,0-.05,0c-.52,.05-1.04,.12-1.55,.19-.91,.13-1.8,.29-2.68,.48h-.01c-.81,.17-1.59,.37-2.36,.58-2.26,.63-4.45,1.5-6.53,2.6-.63,.34-1.23,.7-1.82,1.07-.04,.02-.08,.05-.13,.08-.04,.02-.08,.04-.12,.04-.03,0-.06,0-.09,0h-.14c-.12-.03-.2-.13-.11-.23,3.05-3.47,8.05-6.09,13.99-7.17,.39-.07,.78-.13,1.18-.19h.08s.54-.08,.54-.08c.36-.05,.71-.08,1.07-.12,.51-.05,1.02-.09,1.54-.11,.22-.01,.44-.02,.65-.03h1.61c1.35,.02,2.71,.12,4.05,.3,6.2,.83,11.51,3.31,14.88,6.72h0c.22,.22,.43,.45,.64,.68,.1,.09,.01,.19-.1,.22Z"/><path class="cls-4" d="M42.36,38.56c-.87-.47-1.76-.89-2.67-1.27-4.08-1.71-8.94-2.75-14.2-2.87-.34,0-.68-.01-1.03-.01-.4,0-.79,0-1.18,.01-.47,.01-.94,.03-1.4,.06h-.08c-.64,.04-1.27,.09-1.89,.15h-.14c-.52,.05-1.04,.12-1.55,.19-.91,.13-1.8,.29-2.68,.48h-.01c-.81,.17-1.59,.37-2.36,.58-2.26,.63-4.45,1.5-6.53,2.6,3.01-2.38,7.06-4.15,11.69-5,.39-.07,.78-.13,1.18-.19h.09c.18-.02,.36-.04,.54-.06,.36-.05,.71-.08,1.07-.12,.51-.05,1.02-.08,1.54-.11l.65-.03h.2c.28,0,.56-.01,.85-.01h.55c1.36,.02,2.71,.12,4.05,.3,5.3,.7,9.95,2.61,13.29,5.28Z"/><path class="cls-3" d="M57.97,34.25c-.82-.21-1.6-.58-2.29-1.08l1.01-2.25c.6,.43,1.26,.76,1.96,.98,.74,.24,1.51,.36,2.28,.36,.85,0,1.47-.13,1.88-.38,.37-.2,.61-.58,.61-1,0-.3-.13-.58-.36-.76-.27-.22-.59-.39-.92-.49-.37-.12-.88-.26-1.52-.4-.82-.18-1.62-.42-2.41-.7-.62-.23-1.18-.62-1.61-1.12-.45-.52-.67-1.2-.67-2.06,0-.72,.2-1.43,.61-2.03,.46-.65,1.09-1.16,1.83-1.45,.82-.36,1.81-.53,2.99-.53,.81,0,1.62,.1,2.41,.29,.73,.17,1.42,.46,2.06,.85l-.92,2.26c-1.08-.65-2.31-.99-3.57-1.01-.84,0-1.45,.14-1.85,.4-.37,.23-.6,.63-.6,1.07,0,.44,.23,.77,.69,.99,.68,.28,1.39,.5,2.11,.64,.82,.18,1.62,.42,2.41,.7,.62,.23,1.17,.61,1.61,1.1,.45,.5,.67,1.19,.67,2.04,0,.72-.21,1.42-.62,2.02-.46,.65-1.11,1.16-1.85,1.45-.95,.38-1.98,.56-3,.54-1,0-1.99-.13-2.95-.41Z"/><path class="cls-3" d="M77,22.13c.79,.34,1.47,.9,1.94,1.62,.91,1.53,.91,3.43,0,4.96-.47,.72-1.15,1.29-1.94,1.62-.94,.4-1.95,.59-2.97,.56h-2.6v3.55h-2.99v-12.89h5.58c1.02-.02,2.04,.17,2.98,.57Zm-1.09,5.76c.47-.39,.7-.94,.7-1.65s-.23-1.27-.7-1.67c-.47-.39-1.15-.58-2.04-.58h-2.44v4.47h2.43c.9,0,1.58-.19,2.05-.58Z"/><path class="cls-3" d="M89.58,31.69h-5.98l-1.14,2.76h-3.06l5.74-12.89h2.95l5.76,12.89h-3.13l-1.14-2.76Zm-.94-2.26l-2.04-4.94-2.04,4.94h4.09Z"/><path class="cls-3" d="M103.41,34.45l-2.49-3.59h-2.74v3.59h-2.98v-12.89h5.59c1.02-.02,2.03,.17,2.97,.57,.79,.34,1.47,.9,1.94,1.62,.46,.75,.7,1.61,.67,2.49,.07,1.78-.99,3.41-2.65,4.07l2.89,4.14h-3.2Zm-.76-9.89c-.47-.39-1.15-.58-2.04-.58h-2.43v4.49h2.42c.9,0,1.58-.2,2.04-.59,.47-.39,.7-.94,.7-1.66,0-.72-.23-1.28-.69-1.67h0Z"/><path class="cls-3" d="M113.43,29.38l-1.73,1.81v3.27h-2.97v-12.89h2.97v6.02l5.71-6.02h3.32l-5.34,5.75,5.65,7.15h-3.48l-4.13-5.07Z"/><path class="cls-3" d="M132.34,32.05v2.39h-9.99v-12.89h9.74v2.4h-6.77v2.8h5.99v2.33h-5.99v2.98h7.02Z"/><path class="cls-3" d="M134.72,21.56h5.86c1.28-.03,2.55,.25,3.71,.8,1.03,.5,1.9,1.28,2.5,2.26,1.19,2.1,1.19,4.68,0,6.78-.6,.98-1.47,1.76-2.5,2.26-1.16,.55-2.43,.83-3.71,.8h-5.86v-12.89Zm5.71,10.44c1.29,0,2.32-.36,3.09-1.08,.77-.72,1.15-1.69,1.15-2.92,0-1.23-.38-2.2-1.15-2.92-.77-.72-1.8-1.08-3.09-1.08h-2.72v7.99h2.72Z"/></svg>